<?xml version="1.0" encoding="UTF-8"?>
<svg xmlns:xlink="http://www.w3.org/1999/xlink" xmlns="http://www.w3.org/2000/svg"
     viewBox="0.0 0.0 556.0 456.6010498687664" fill="none" stroke="none" stroke-linecap="square" stroke-miterlimit="10">
    <clipPath id="p.0">
        <path d="m0 0l556.0 0l0 456.60104l-556.0 0l0 -456.60104z" clip-rule="nonzero"></path>
    </clipPath>
    <g clip-path="url(#p.0)">
        <path fill="#000000" fill-opacity="0.0" d="m0 0l556.0 0l0 456.60104l-556.0 0z" fill-rule="evenodd"></path>
        <path fill="#fff2cc"
              d="m381.97638 311.5816l0 0c0 -6.3927307 5.182312 -11.575043 11.575043 -11.575043l146.89719 0c3.0698853 0 6.014038 1.2195129 8.184753 3.3902588c2.1707764 2.1707458 3.3902588 5.1148987 3.3902588 8.184784l0 46.298737c0 6.3927307 -5.182312 11.575043 -11.575012 11.575043l-146.89719 0l0 0c-6.3927307 0 -11.575043 -5.182312 -11.575043 -11.575043z"
              fill-rule="evenodd"></path>
        <path fill="#000000"
              d="m392.76883 330.65097l0 -13.359375l5.921875 0q1.78125 0 2.703125 0.359375q0.9375 0.359375 1.484375 1.28125q0.5625 0.90625 0.5625 2.015625q0 1.40625 -0.921875 2.390625q-0.921875 0.96875 -2.84375 1.234375q0.703125 0.34375 1.078125 0.671875q0.765625 0.703125 1.453125 1.765625l2.328125 3.640625l-2.21875 0l-1.765625 -2.78125q-0.78125 -1.203125 -1.28125 -1.828125q-0.5 -0.640625 -0.90625 -0.890625q-0.390625 -0.265625 -0.796875 -0.359375q-0.296875 -0.078125 -0.984375 -0.078125l-2.046875 0l0 5.9375l-1.765625 0zm1.765625 -7.453125l3.796875 0q1.21875 0 1.890625 -0.25q0.6875 -0.265625 1.046875 -0.8125q0.359375 -0.546875 0.359375 -1.1875q0 -0.953125 -0.6875 -1.5625q-0.6875 -0.609375 -2.1875 -0.609375l-4.21875 0l0 4.421875zm17.801056 7.453125l0 -1.421875q-1.125 1.640625 -3.0625 1.640625q-0.859375 0 -1.609375 -0.328125q-0.734375 -0.328125 -1.09375 -0.828125q-0.359375 -0.5 -0.5 -1.21875q-0.109375 -0.46875 -0.109375 -1.53125l0 -5.984375l1.640625 0l0 5.359375q0 1.28125 0.109375 1.734375q0.15625 0.640625 0.65625 1.015625q0.5 0.375 1.234375 0.375q0.734375 0 1.375 -0.375q0.65625 -0.390625 0.921875 -1.03125q0.265625 -0.65625 0.265625 -1.890625l0 -5.1875l1.640625 0l0 9.671875l-1.46875 0zm4.0476074 0l0 -9.671875l1.46875 0l0 1.375q1.0625 -1.59375 3.078125 -1.59375q0.875 0 1.609375 0.3125q0.734375 0.3125 1.09375 0.828125q0.375 0.5 0.515625 1.203125q0.09375 0.453125 0.09375 1.59375l0 5.953125l-1.640625 0l0 -5.890625q0 -1.0 -0.203125 -1.484375q-0.1875 -0.5 -0.671875 -0.796875q-0.484375 -0.296875 -1.140625 -0.296875q-1.046875 0 -1.8125 0.671875q-0.75 0.65625 -0.75 2.515625l0 5.28125l-1.640625 0zm13.953827 -1.46875l0.234375 1.453125q-0.6875 0.140625 -1.234375 0.140625q-0.890625 0 -1.390625 -0.28125q-0.484375 -0.28125 -0.6875 -0.734375q-0.203125 -0.46875 -0.203125 -1.9375l0 -5.578125l-1.203125 0l0 -1.265625l1.203125 0l0 -2.390625l1.625 -0.984375l0 3.375l1.65625 0l0 1.265625l-1.65625 0l0 5.671875q0 0.6875 0.078125 0.890625q0.09375 0.203125 0.28125 0.328125q0.203125 0.109375 0.578125 0.109375q0.265625 0 0.71875 -0.0625zm1.6051941 -10.0l0 -1.890625l1.640625 0l0 1.890625l-1.640625 0zm0 11.46875l0 -9.671875l1.640625 0l0 9.671875l-1.640625 0zm4.144806 0l0 -9.671875l1.46875 0l0 1.359375q0.453125 -0.71875 1.203125 -1.140625q0.765625 -0.4375 1.71875 -0.4375q1.078125 0 1.765625 0.453125q0.6875 0.4375 0.96875 1.234375q1.15625 -1.6875 2.984375 -1.6875q1.453125 0 2.21875 0.796875q0.78125 0.796875 0.78125 2.453125l0 6.640625l-1.640625 0l0 -6.09375q0 -0.984375 -0.15625 -1.40625q-0.15625 -0.4375 -0.578125 -0.703125q-0.421875 -0.265625 -0.984375 -0.265625q-1.015625 0 -1.6875 0.6875q-0.671875 0.671875 -0.671875 2.15625l0 5.625l-1.640625 0l0 -6.28125q0 -1.09375 -0.40625 -1.640625q-0.40625 -0.546875 -1.3125 -0.546875q-0.6875 0 -1.28125 0.359375q-0.59375 0.359375 -0.859375 1.0625q-0.25 0.703125 -0.25 2.03125l0 5.015625l-1.640625 0zm22.165802 -3.109375l1.6875 0.203125q-0.40625 1.484375 -1.484375 2.3125q-1.078125 0.8125 -2.765625 0.8125q-2.125 0 -3.375 -1.296875q-1.234375 -1.3125 -1.234375 -3.671875q0 -2.453125 1.25 -3.796875q1.265625 -1.34375 3.265625 -1.34375q1.9375 0 3.15625 1.328125q1.234375 1.3125 1.234375 3.703125q0 0.15625 0 0.4375l-7.21875 0q0.09375 1.59375 0.90625 2.453125q0.8125 0.84375 2.015625 0.84375q0.90625 0 1.546875 -0.46875q0.640625 -0.484375 1.015625 -1.515625zm-5.390625 -2.65625l5.40625 0q-0.109375 -1.21875 -0.625 -1.828125q-0.78125 -0.953125 -2.03125 -0.953125q-1.125 0 -1.90625 0.765625q-0.765625 0.75 -0.84375 2.015625zm9.375732 5.765625l0 -13.359375l9.65625 0l0 1.578125l-7.875 0l0 4.09375l7.375 0l0 1.5625l-7.375 0l0 4.546875l8.1875 0l0 1.578125l-9.96875 0zm11.115448 0l3.53125 -5.03125l-3.265625 -4.640625l2.046875 0l1.484375 2.265625q0.421875 0.640625 0.671875 1.078125q0.40625 -0.59375 0.734375 -1.0625l1.640625 -2.28125l1.953125 0l-3.34375 4.546875l3.59375 5.125l-2.015625 0l-1.984375 -3.0l-0.515625 -0.8125l-2.546875 3.8125l-1.984375 0zm16.734375 -3.546875l1.609375 0.21875q-0.265625 1.65625 -1.359375 2.609375q-1.078125 0.9375 -2.671875 0.9375q-1.984375 0 -3.1875 -1.296875q-1.203125 -1.296875 -1.203125 -3.71875q0 -1.578125 0.515625 -2.75q0.515625 -1.171875 1.578125 -1.75q1.0625 -0.59375 2.3125 -0.59375q1.578125 0 2.578125 0.796875q1.0 0.796875 1.28125 2.265625l-1.59375 0.234375q-0.234375 -0.96875 -0.8125 -1.453125q-0.578125 -0.5 -1.390625 -0.5q-1.234375 0 -2.015625 0.890625q-0.78125 0.890625 -0.78125 2.8125q0 1.953125 0.75 2.84375q0.75 0.875 1.953125 0.875q0.96875 0 1.609375 -0.59375q0.65625 -0.59375 0.828125 -1.828125zm9.640625 0.4375l1.6875 0.203125q-0.40625 1.484375 -1.484375 2.3125q-1.078125 0.8125 -2.765625 0.8125q-2.125 0 -3.375 -1.296875q-1.234375 -1.3125 -1.234375 -3.671875q0 -2.453125 1.25 -3.796875q1.265625 -1.34375 3.265625 -1.34375q1.9375 0 3.15625 1.328125q1.234375 1.3125 1.234375 3.703125q0 0.15625 0 0.4375l-7.21875 0q0.09375 1.59375 0.90625 2.453125q0.8125 0.84375 2.015625 0.84375q0.90625 0 1.546875 -0.46875q0.640625 -0.484375 1.015625 -1.515625zm-5.390625 -2.65625l5.40625 0q-0.109375 -1.21875 -0.625 -1.828125q-0.78125 -0.953125 -2.03125 -0.953125q-1.125 0 -1.90625 0.765625q-0.765625 0.75 -0.84375 2.015625zm9.141327 9.46875l0 -13.375l1.484375 0l0 1.25q0.53125 -0.734375 1.1875 -1.09375q0.671875 -0.375 1.625 -0.375q1.234375 0 2.171875 0.640625q0.953125 0.625 1.4375 1.796875q0.484375 1.15625 0.484375 2.546875q0 1.484375 -0.53125 2.671875q-0.53125 1.1875 -1.546875 1.828125q-1.015625 0.625 -2.140625 0.625q-0.8125 0 -1.46875 -0.34375q-0.65625 -0.34375 -1.0625 -0.875l0 4.703125l-1.640625 0zm1.484375 -8.484375q0 1.859375 0.75 2.765625q0.765625 0.890625 1.828125 0.890625q1.09375 0 1.875 -0.921875q0.78125 -0.9375 0.78125 -2.875q0 -1.84375 -0.765625 -2.765625q-0.75 -0.921875 -1.8125 -0.921875q-1.046875 0 -1.859375 0.984375q-0.796875 0.96875 -0.796875 2.84375zm12.469482 3.3125l0.234375 1.453125q-0.6875 0.140625 -1.234375 0.140625q-0.890625 0 -1.390625 -0.28125q-0.484375 -0.28125 -0.6875 -0.734375q-0.203125 -0.46875 -0.203125 -1.9375l0 -5.578125l-1.203125 0l0 -1.265625l1.203125 0l0 -2.390625l1.625 -0.984375l0 3.375l1.65625 0l0 1.265625l-1.65625 0l0 5.671875q0 0.6875 0.078125 0.890625q0.09375 0.203125 0.28125 0.328125q0.203125 0.109375 0.578125 0.109375q0.265625 0 0.71875 -0.0625zm1.6051636 -10.0l0 -1.890625l1.640625 0l0 1.890625l-1.640625 0zm0 11.46875l0 -9.671875l1.640625 0l0 9.671875l-1.640625 0zm3.5354614 -4.84375q0 -2.6875 1.484375 -3.96875q1.25 -1.078125 3.046875 -1.078125q2.0 0 3.265625 1.3125q1.265625 1.296875 1.265625 3.609375q0 1.859375 -0.5625 2.9375q-0.5625 1.0625 -1.640625 1.65625q-1.0625 0.59375 -2.328125 0.59375q-2.03125 0 -3.28125 -1.296875q-1.25 -1.3125 -1.25 -3.765625zm1.6875 0q0 1.859375 0.796875 2.796875q0.8125 0.921875 2.046875 0.921875q1.21875 0 2.03125 -0.921875q0.8125 -0.9375 0.8125 -2.84375q0 -1.796875 -0.8125 -2.71875q-0.8125 -0.921875 -2.03125 -0.921875q-1.234375 0 -2.046875 0.921875q-0.796875 0.90625 -0.796875 2.765625zm9.297607 4.84375l0 -9.671875l1.46875 0l0 1.375q1.0625 -1.59375 3.078125 -1.59375q0.875 0 1.609375 0.3125q0.734375 0.3125 1.09375 0.828125q0.375 0.5 0.515625 1.203125q0.09375 0.453125 0.09375 1.59375l0 5.953125l-1.640625 0l0 -5.890625q0 -1.0 -0.203125 -1.484375q-0.1875 -0.5 -0.671875 -0.796875q-0.484375 -0.296875 -1.140625 -0.296875q-1.046875 0 -1.8125 0.671875q-0.75 0.65625 -0.75 2.515625l0 5.28125l-1.640625 0z"
              fill-rule="nonzero"></path>
        <path fill="#000000"
              d="m456.91406 342.4791q-1.421875 8.09375 -9.28125 11.578125l-1.34375 -1.40625q7.28125 -2.96875 8.765625 -10.25l-5.9375 0q-1.703125 2.828125 -3.5625 4.53125l-1.484375 -0.96875q3.859375 -3.484375 4.96875 -8.15625l1.703125 0.59375q0.453125 0.21875 -0.140625 0.4375q-0.296875 0.96875 -0.8125 1.9375l5.34375 0l0.65625 -0.375l1.34375 1.34375q0.515625 0.515625 -0.21875 0.734375zm5.5546875 10.25q7.203125 -1.859375 8.09375 -7.796875l-11.28125 0l0 -1.640625l11.359375 0l0.671875 -0.21875l1.328125 0.8125q0.453125 0.375 -0.140625 0.671875q-1.1875 7.421875 -8.6875 9.65625l-1.34375 -1.484375zm8.390625 -12.03125l-10.234375 0l0 -1.625l10.234375 0l0 1.625zm12.847656 5.203125q3.1875 2.4375 6.296875 5.640625l-1.484375 1.265625q-3.109375 -3.28125 -6.0 -5.5q-2.90625 3.109375 -6.609375 5.5625l-1.40625 -1.265625q7.859375 -5.109375 10.09375 -10.234375l-8.09375 0.515625l-0.21875 -1.78125l8.609375 -0.375l0.890625 -0.21875l1.1875 1.1875q0.515625 0.515625 -0.296875 0.671875q-1.421875 2.453125 -2.96875 4.53125z"
              fill-rule="nonzero"></path>
        <path fill="#fff2cc"
              d="m381.97638 394.03174l0 0c0 -6.3927307 5.182312 -11.575043 11.575043 -11.575043l146.89719 0c3.0698853 0 6.014038 1.2195129 8.184753 3.3902588c2.1707764 2.1707153 3.3902588 5.114868 3.3902588 8.184784l0 46.298737c0 6.3927307 -5.182312 11.575043 -11.575012 11.575043l-146.89719 0l0 0c-6.3927307 0 -11.575043 -5.182312 -11.575043 -11.575043z"
              fill-rule="evenodd"></path>
        <path fill="#000000"
              d="m418.53125 408.86673q0 4.453125 -5.5625 6.015625l-0.734375 -1.484375q4.59375 -1.40625 4.75 -4.078125l-4.90625 1.40625q-0.078125 0.515625 -0.375 0.21875l-0.359375 -1.703125l5.703125 -1.34375l0 -1.703125l-4.296875 0l0 -1.40625l4.296875 0l0 -2.375l-5.1875 0l0 -1.40625l5.1875 0l0 -2.90625l1.421875 0q0.59375 0.078125 0.0625 0.453125l0 10.3125zm8.765625 -7.859375l0 1.40625l-5.125 0l0 2.375l4.3125 0l0 1.40625l-4.3125 0l0 2.59375l5.859375 0l0 1.421875l-5.859375 0l0 4.296875l-1.484375 0l0 -16.40625l1.40625 0q0.59375 0.078125 0.078125 0.453125l0 2.453125l5.125 0zm5.34375 6.453125q-0.671875 1.703125 -2.0 3.34375l-0.828125 -1.5625q2.453125 -3.34375 2.75 -6.3125l-2.296875 0l0 -1.40625l2.375 0l0 -3.640625l1.40625 0q0.59375 0.078125 0.078125 0.453125l0 3.1875l1.78125 0l0 0.515625q3.1875 -1.1875 4.671875 -4.375l1.484375 0.4375q0.296875 0.375 -0.296875 0.453125q1.859375 2.21875 5.265625 3.703125l-0.65625 1.484375q-0.96875 -0.359375 -1.9375 -0.953125l0 1.109375l-2.453125 0l0 1.484375l3.859375 0l0 4.75l-1.25 0l0 -0.375l-2.375 0q1.40625 2.15625 4.96875 2.96875l-0.75 1.640625q-3.40625 -1.046875 -5.046875 -3.5625q-1.484375 3.109375 -5.5625 3.859375l-0.59375 -1.484375q4.015625 -0.75 5.046875 -3.421875l-2.296875 0l0 0.453125l-1.265625 0l0 -4.828125l3.78125 0l0 -1.484375l-2.59375 0l0 -1.046875q-0.8125 0.59375 -2.078125 1.046875l-0.375 -0.96875l-1.328125 0l0 2.296875q1.484375 0.96875 2.15625 1.640625l-0.828125 1.40625q-0.515625 -0.671875 -1.328125 -1.328125l0 7.859375l-1.484375 0l0 -7.34375zm8.453125 -7.796875q-1.03125 1.859375 -2.96875 3.046875l6.234375 0q-1.703125 -1.046875 -3.265625 -3.046875zm3.5 6.90625l-2.609375 0l0 2.0l2.609375 0l0 -2.0zm-6.609375 0l0 2.0l2.515625 0l0 -2.0l-2.515625 0zm27.390625 0.21875q-4.390625 -1.625 -7.28125 -4.671875l0 2.890625l-1.484375 0l0 -2.59375q-2.96875 3.109375 -7.203125 4.671875l-0.65625 -1.5625q4.890625 -1.84375 7.34375 -4.515625l-6.390625 0l0 -1.421875l6.90625 0l0 -1.78125l1.40625 0q0.59375 0.078125 0.078125 0.453125l0 1.328125l6.75 0l0 1.421875l-6.078125 0q2.8125 2.734375 7.203125 4.0l-0.59375 1.78125zm-12.625 -1.109375l9.203125 0l0 7.265625l3.5625 0l0 1.203125l-16.109375 0l0 -1.203125l3.34375 0l0 -7.265625zm7.71875 5.9375l-6.234375 0l0 1.328125l6.234375 0l0 -1.328125zm0 -2.375l-6.234375 0l0 1.1875l6.234375 0l0 -1.1875zm-6.234375 -1.1875l6.234375 0l0 -1.1875l-6.234375 0l0 1.1875zm13.28125 -2.375q2.671875 -2.671875 3.640625 -7.9375l1.5625 0.4375q0.296875 0.296875 -0.21875 0.375q-0.890625 3.109375 -1.1875 3.9375l0.296875 0.0625q0.21875 0.234375 -0.15625 0.453125l0 11.578125l-1.484375 0l0 -9.421875q-0.8125 1.1875 -1.625 1.921875l-0.828125 -1.40625zm4.234375 3.109375q2.296875 -2.375 2.75 -8.234375l-1.5625 0l0 -1.40625l6.609375 0l0 1.40625l-3.640625 0l-0.296875 2.375l3.125 0l0 1.78125q0 6.390625 -5.125 9.796875l-0.890625 -1.328125q2.59375 -1.640625 3.78125 -4.53125q-1.109375 -0.96875 -2.0 -1.34375q-0.671875 1.421875 -1.703125 2.75l-1.046875 -1.265625zm3.1875 -2.8125q1.125 0.375 2.015625 1.109375q0.359375 -1.328125 0.359375 -2.75l-1.921875 0q-0.078125 0.671875 -0.453125 1.640625zm7.5 6.96875q0.296875 0 0.296875 -0.296875l0 -14.171875l1.40625 0q0.59375 0.078125 0.078125 0.453125l0 14.390625q0 1.046875 -0.96875 1.046875l-2.0 0l-0.140625 -1.421875l1.328125 0zm-1.109375 -2.59375l-1.484375 0l0 -9.875l1.40625 0q0.59375 0.078125 0.078125 0.453125l0 9.421875zm6.53125 2.453125q2.453125 -1.5625 4.296875 -4.90625q-1.484375 -1.328125 -2.4375 -1.921875q-0.53125 1.265625 -1.421875 2.296875l-1.328125 -0.96875q2.453125 -3.03125 3.1875 -8.15625l1.5625 0.4375q0.375 0.296875 -0.15625 0.53125l-0.296875 1.40625l2.828125 0l0.296875 -0.296875l1.03125 0.890625q0.234375 0.21875 -0.140625 0.4375q-1.109375 7.875 -6.453125 11.59375l-0.96875 -1.34375zm14.921875 -3.125q-2.15625 -1.484375 -3.203125 -2.4375l0 7.203125l-1.484375 0l0 -8.6875q-1.40625 -1.78125 -2.515625 -3.71875l1.1875 -0.890625q0.671875 1.1875 1.328125 2.078125l0 -5.125l1.421875 0q0.59375 0.078125 0.0625 0.453125l0 6.375q0.53125 1.046875 4.3125 3.265625l-1.109375 1.484375zm-10.03125 -3.265625q0.671875 -1.703125 0.96875 -3.484375l-2.8125 0l-0.59375 1.640625q0.953125 0.59375 2.4375 1.84375zm22.5 -3.78125q-1.265625 7.421875 -3.046875 9.203125q-0.96875 0.96875 -2.0 0.96875q-1.1875 0 -1.859375 -0.671875q-1.78125 -1.78125 -1.78125 -4.453125q0 -3.265625 2.296875 -5.5625q2.53125 -2.53125 6.15625 -2.53125q3.265625 0 5.125 1.859375q2.078125 2.078125 2.078125 4.90625q0 3.03125 -1.921875 4.96875q-1.265625 1.265625 -3.859375 2.453125l-1.5625 -1.5625q2.59375 -0.8125 4.078125 -2.296875q1.40625 -1.421875 1.40625 -3.421875q0 -2.375 -1.546875 -3.9375q-1.5625 -1.546875 -4.90625 -1.40625l1.34375 0.671875q0.890625 0.375 0 0.8125zm-1.71875 -1.40625q-1.921875 0.4375 -3.328125 1.859375q-1.9375 1.921875 -1.9375 4.75q0 1.703125 1.109375 2.8125q0.234375 0.21875 0.671875 0.21875q0.453125 0 0.96875 -0.515625q1.703125 -1.703125 2.515625 -9.125z"
              fill-rule="nonzero"></path>
        <path fill="#000000"
              d="m456.91406 424.92923q-1.421875 8.09375 -9.28125 11.578125l-1.34375 -1.40625q7.28125 -2.96875 8.765625 -10.25l-5.9375 0q-1.703125 2.828125 -3.5625 4.53125l-1.484375 -0.96875q3.859375 -3.484375 4.96875 -8.15625l1.703125 0.59375q0.453125 0.21875 -0.140625 0.4375q-0.296875 0.96875 -0.8125 1.9375l5.34375 0l0.65625 -0.375l1.34375 1.34375q0.515625 0.515625 -0.21875 0.734375zm5.5546875 10.25q7.203125 -1.859375 8.09375 -7.796875l-11.28125 0l0 -1.640625l11.359375 0l0.671875 -0.21875l1.328125 0.8125q0.453125 0.375 -0.140625 0.671875q-1.1875 7.421875 -8.6875 9.65625l-1.34375 -1.484375zm8.390625 -12.03125l-10.234375 0l0 -1.625l10.234375 0l0 1.625zm12.847656 5.203125q3.1875 2.4375 6.296875 5.640625l-1.484375 1.265625q-3.109375 -3.28125 -6.0 -5.5q-2.90625 3.109375 -6.609375 5.5625l-1.40625 -1.265625q7.859375 -5.109375 10.09375 -10.234375l-8.09375 0.515625l-0.21875 -1.78125l8.609375 -0.375l0.890625 -0.21875l1.1875 1.1875q0.515625 0.515625 -0.296875 0.671875q-1.421875 2.453125 -2.96875 4.53125z"
              fill-rule="nonzero"></path>
        <path fill="#cfe2f3"
              d="m201.97638 311.58292l0 0c0 -6.3927307 5.182312 -11.575043 11.575027 -11.575043l146.89717 0c3.0698853 0 6.0140686 1.2195129 8.184784 3.3902588c2.1707458 2.1707458 3.3902588 5.1148987 3.3902588 8.184784l0 46.298737c0 6.3927307 -5.182312 11.575043 -11.575043 11.575043l-146.89717 0l0 0c-6.3927155 0 -11.575027 -5.182312 -11.575027 -11.575043z"
              fill-rule="evenodd"></path>
        <path fill="#000000"
              d="m243.14062 325.01166q-0.671875 1.703125 -2.0 3.34375l-0.828125 -1.5625q2.453125 -3.34375 2.75 -6.3125l-2.296875 0l0 -1.40625l2.375 0l0 -3.640625l1.40625 0q0.59375 0.078125 0.078125 0.453125l0 3.1875l1.78125 0l0 0.515625q3.1875 -1.1875 4.671875 -4.375l1.484375 0.4375q0.296875 0.375 -0.296875 0.453125q1.859375 2.21875 5.265625 3.703125l-0.65625 1.484375q-0.96875 -0.359375 -1.9375 -0.953125l0 1.109375l-2.453125 0l0 1.484375l3.859375 0l0 4.75l-1.25 0l0 -0.375l-2.375 0q1.40625 2.15625 4.96875 2.96875l-0.75 1.640625q-3.40625 -1.046875 -5.046875 -3.5625q-1.484375 3.109375 -5.5625 3.859375l-0.59375 -1.484375q4.015625 -0.75 5.046875 -3.421875l-2.296875 0l0 0.453125l-1.265625 0l0 -4.828125l3.78125 0l0 -1.484375l-2.59375 0l0 -1.046875q-0.8125 0.59375 -2.078125 1.046875l-0.375 -0.96875l-1.328125 0l0 2.296875q1.484375 0.96875 2.15625 1.640625l-0.828125 1.40625q-0.515625 -0.671875 -1.328125 -1.328125l0 7.859375l-1.484375 0l0 -7.34375zm8.453125 -7.796875q-1.03125 1.859375 -2.96875 3.046875l6.234375 0q-1.703125 -1.046875 -3.265625 -3.046875zm3.5 6.90625l-2.609375 0l0 2.0l2.609375 0l0 -2.0zm-6.609375 0l0 2.0l2.515625 0l0 -2.0l-2.515625 0zm27.390625 0.21875q-4.390625 -1.625 -7.28125 -4.671875l0 2.890625l-1.484375 0l0 -2.59375q-2.96875 3.109375 -7.203125 4.671875l-0.65625 -1.5625q4.890625 -1.84375 7.34375 -4.515625l-6.390625 0l0 -1.421875l6.90625 0l0 -1.78125l1.40625 0q0.59375 0.078125 0.078125 0.453125l0 1.328125l6.75 0l0 1.421875l-6.078125 0q2.8125 2.734375 7.203125 4.0l-0.59375 1.78125zm-12.625 -1.109375l9.203125 0l0 7.265625l3.5625 0l0 1.203125l-16.109375 0l0 -1.203125l3.34375 0l0 -7.265625zm7.71875 5.9375l-6.234375 0l0 1.328125l6.234375 0l0 -1.328125zm0 -2.375l-6.234375 0l0 1.1875l6.234375 0l0 -1.1875zm-6.234375 -1.1875l6.234375 0l0 -1.1875l-6.234375 0l0 1.1875zm13.28125 -2.375q2.671875 -2.671875 3.640625 -7.9375l1.5625 0.4375q0.296875 0.296875 -0.21875 0.375q-0.890625 3.109375 -1.1875 3.9375l0.296875 0.0625q0.21875 0.234375 -0.15625 0.453125l0 11.578125l-1.484375 0l0 -9.421875q-0.8125 1.1875 -1.625 1.921875l-0.828125 -1.40625zm4.234375 3.109375q2.296875 -2.375 2.75 -8.234375l-1.5625 0l0 -1.40625l6.609375 0l0 1.40625l-3.640625 0l-0.296875 2.375l3.125 0l0 1.78125q0 6.390625 -5.125 9.796875l-0.890625 -1.328125q2.59375 -1.640625 3.78125 -4.53125q-1.109375 -0.96875 -2.0 -1.34375q-0.671875 1.421875 -1.703125 2.75l-1.046875 -1.265625zm3.1875 -2.8125q1.125 0.375 2.015625 1.109375q0.359375 -1.328125 0.359375 -2.75l-1.921875 0q-0.078125 0.671875 -0.453125 1.640625zm7.5 6.96875q0.296875 0 0.296875 -0.296875l0 -14.171875l1.40625 0q0.59375 0.078125 0.078125 0.453125l0 14.390625q0 1.046875 -0.96875 1.046875l-2.0 0l-0.140625 -1.421875l1.328125 0zm-1.109375 -2.59375l-1.484375 0l0 -9.875l1.40625 0q0.59375 0.078125 0.078125 0.453125l0 9.421875zm6.53125 2.453125q2.453125 -1.5625 4.296875 -4.90625q-1.484375 -1.328125 -2.4375 -1.921875q-0.53125 1.265625 -1.421875 2.296875l-1.328125 -0.96875q2.453125 -3.03125 3.1875 -8.15625l1.5625 0.4375q0.375 0.296875 -0.15625 0.53125l-0.296875 1.40625l2.828125 0l0.296875 -0.296875l1.03125 0.890625q0.234375 0.21875 -0.140625 0.4375q-1.109375 7.875 -6.453125 11.59375l-0.96875 -1.34375zm14.921875 -3.125q-2.15625 -1.484375 -3.203125 -2.4375l0 7.203125l-1.484375 0l0 -8.6875q-1.40625 -1.78125 -2.515625 -3.71875l1.1875 -0.890625q0.671875 1.1875 1.328125 2.078125l0 -5.125l1.421875 0q0.59375 0.078125 0.0625 0.453125l0 6.375q0.53125 1.046875 4.3125 3.265625l-1.109375 1.484375zm-10.03125 -3.265625q0.671875 -1.703125 0.96875 -3.484375l-2.8125 0l-0.59375 1.640625q0.953125 0.59375 2.4375 1.84375zm22.5 -3.78125q-1.265625 7.421875 -3.046875 9.203125q-0.96875 0.96875 -2.0 0.96875q-1.1875 0 -1.859375 -0.671875q-1.78125 -1.78125 -1.78125 -4.453125q0 -3.265625 2.296875 -5.5625q2.53125 -2.53125 6.15625 -2.53125q3.265625 0 5.125 1.859375q2.078125 2.078125 2.078125 4.90625q0 3.03125 -1.921875 4.96875q-1.265625 1.265625 -3.859375 2.453125l-1.5625 -1.5625q2.59375 -0.8125 4.078125 -2.296875q1.40625 -1.421875 1.40625 -3.421875q0 -2.375 -1.546875 -3.9375q-1.5625 -1.546875 -4.90625 -1.40625l1.34375 0.671875q0.890625 0.375 0 0.8125zm-1.71875 -1.40625q-1.921875 0.4375 -3.328125 1.859375q-1.9375 1.921875 -1.9375 4.75q0 1.703125 1.109375 2.8125q0.234375 0.21875 0.671875 0.21875q0.453125 0 0.96875 -0.515625q1.703125 -1.703125 2.515625 -9.125z"
              fill-rule="nonzero"></path>
        <path fill="#000000"
              d="m276.91406 342.4804q-1.421875 8.09375 -9.28125 11.578125l-1.34375 -1.40625q7.28125 -2.96875 8.765625 -10.25l-5.9375 0q-1.703125 2.828125 -3.5625 4.53125l-1.484375 -0.96875q3.859375 -3.484375 4.96875 -8.15625l1.703125 0.59375q0.453125 0.21875 -0.140625 0.4375q-0.296875 0.96875 -0.8125 1.9375l5.34375 0l0.65625 -0.375l1.34375 1.34375q0.515625 0.515625 -0.21875 0.734375zm5.5546875 10.25q7.203125 -1.859375 8.09375 -7.796875l-11.28125 0l0 -1.640625l11.359375 0l0.671875 -0.21875l1.328125 0.8125q0.453125 0.375 -0.140625 0.671875q-1.1875 7.421875 -8.6875 9.65625l-1.34375 -1.484375zm8.390625 -12.03125l-10.234375 0l0 -1.625l10.234375 0l0 1.625zm12.847656 5.203125q3.1875 2.4375 6.296875 5.640625l-1.484375 1.265625q-3.109375 -3.28125 -6.0 -5.5q-2.90625 3.109375 -6.609375 5.5625l-1.40625 -1.265625q7.859375 -5.109375 10.09375 -10.234375l-8.09375 0.515625l-0.21875 -1.78125l8.609375 -0.375l0.890625 -0.21875l1.1875 1.1875q0.515625 0.515625 -0.296875 0.671875q-1.421875 2.453125 -2.96875 4.53125z"
              fill-rule="nonzero"></path>
        <path fill="#cfe2f3"
              d="m291.48032 211.58292l0 0c0 -6.3927155 5.182312 -11.575043 11.575043 -11.575043l146.89716 0c3.0698853 0 6.0140686 1.2195129 8.184784 3.3902435c2.1707458 2.1707458 3.3902588 5.1148987 3.3902588 8.184799l0 46.298737c0 6.3927307 -5.182312 11.575043 -11.575043 11.575043l-146.89716 0l0 0c-6.3927307 0 -11.575043 -5.182312 -11.575043 -11.575043z"
              fill-rule="evenodd"></path>
        <path fill="#000000"
              d="m337.00726 230.65228l0 -13.359375l9.65625 0l0 1.578125l-7.875 0l0 4.09375l7.375 0l0 1.5625l-7.375 0l0 4.546875l8.1875 0l0 1.578125l-9.96875 0zm11.115448 0l3.53125 -5.03125l-3.265625 -4.640625l2.046875 0l1.484375 2.265625q0.421875 0.640625 0.671875 1.078125q0.40625 -0.59375 0.734375 -1.0625l1.640625 -2.28125l1.953125 0l-3.34375 4.546875l3.59375 5.125l-2.015625 0l-1.984375 -3.0l-0.515625 -0.8125l-2.546875 3.8125l-1.984375 0zm16.734375 -3.546875l1.609375 0.21875q-0.265625 1.65625 -1.359375 2.609375q-1.078125 0.9375 -2.671875 0.9375q-1.984375 0 -3.1875 -1.296875q-1.203125 -1.296875 -1.203125 -3.71875q0 -1.578125 0.515625 -2.75q0.515625 -1.171875 1.578125 -1.75q1.0625 -0.59375 2.3125 -0.59375q1.578125 0 2.578125 0.796875q1.0 0.796875 1.28125 2.265625l-1.59375 0.234375q-0.234375 -0.96875 -0.8125 -1.453125q-0.578125 -0.5 -1.390625 -0.5q-1.234375 0 -2.015625 0.890625q-0.78125 0.890625 -0.78125 2.8125q0 1.953125 0.75 2.84375q0.75 0.875 1.953125 0.875q0.96875 0 1.609375 -0.59375q0.65625 -0.59375 0.828125 -1.828125zm9.640625 0.4375l1.6875 0.203125q-0.40625 1.484375 -1.484375 2.3125q-1.078125 0.8125 -2.765625 0.8125q-2.125 0 -3.375 -1.296875q-1.234375 -1.3125 -1.234375 -3.671875q0 -2.453125 1.25 -3.796875q1.265625 -1.34375 3.265625 -1.34375q1.9375 0 3.15625 1.328125q1.234375 1.3125 1.234375 3.703125q0 0.15625 0 0.4375l-7.21875 0q0.09375 1.59375 0.90625 2.453125q0.8125 0.84375 2.015625 0.84375q0.90625 0 1.546875 -0.46875q0.640625 -0.484375 1.015625 -1.515625zm-5.390625 -2.65625l5.40625 0q-0.109375 -1.21875 -0.625 -1.828125q-0.78125 -0.953125 -2.03125 -0.953125q-1.125 0 -1.90625 0.765625q-0.765625 0.75 -0.84375 2.015625zm9.141357 9.46875l0 -13.375l1.484375 0l0 1.25q0.53125 -0.734375 1.1875 -1.09375q0.671875 -0.375 1.625 -0.375q1.234375 0 2.171875 0.640625q0.953125 0.625 1.4375 1.796875q0.484375 1.15625 0.484375 2.546875q0 1.484375 -0.53125 2.671875q-0.53125 1.1875 -1.546875 1.828125q-1.015625 0.625 -2.140625 0.625q-0.8125 0 -1.46875 -0.34375q-0.65625 -0.34375 -1.0625 -0.875l0 4.703125l-1.640625 0zm1.484375 -8.484375q0 1.859375 0.75 2.765625q0.765625 0.890625 1.828125 0.890625q1.09375 0 1.875 -0.921875q0.78125 -0.9375 0.78125 -2.875q0 -1.84375 -0.765625 -2.765625q-0.75 -0.921875 -1.8125 -0.921875q-1.046875 0 -1.859375 0.984375q-0.796875 0.96875 -0.796875 2.84375zm12.469452 3.3125l0.234375 1.453125q-0.6875 0.140625 -1.234375 0.140625q-0.890625 0 -1.390625 -0.28125q-0.484375 -0.28125 -0.6875 -0.734375q-0.203125 -0.46875 -0.203125 -1.9375l0 -5.578125l-1.203125 0l0 -1.265625l1.203125 0l0 -2.390625l1.625 -0.984375l0 3.375l1.65625 0l0 1.265625l-1.65625 0l0 5.671875q0 0.6875 0.078125 0.890625q0.09375 0.203125 0.28125 0.328125q0.203125 0.109375 0.578125 0.109375q0.265625 0 0.71875 -0.0625zm1.6051941 -10.0l0 -1.890625l1.640625 0l0 1.890625l-1.640625 0zm0 11.46875l0 -9.671875l1.640625 0l0 9.671875l-1.640625 0zm3.535431 -4.84375q0 -2.6875 1.484375 -3.96875q1.25 -1.078125 3.046875 -1.078125q2.0 0 3.265625 1.3125q1.265625 1.296875 1.265625 3.609375q0 1.859375 -0.5625 2.9375q-0.5625 1.0625 -1.640625 1.65625q-1.0625 0.59375 -2.328125 0.59375q-2.03125 0 -3.28125 -1.296875q-1.25 -1.3125 -1.25 -3.765625zm1.6875 0q0 1.859375 0.796875 2.796875q0.8125 0.921875 2.046875 0.921875q1.21875 0 2.03125 -0.921875q0.8125 -0.9375 0.8125 -2.84375q0 -1.796875 -0.8125 -2.71875q-0.8125 -0.921875 -2.03125 -0.921875q-1.234375 0 -2.046875 0.921875q-0.796875 0.90625 -0.796875 2.765625zm9.297607 4.84375l0 -9.671875l1.46875 0l0 1.375q1.0625 -1.59375 3.078125 -1.59375q0.875 0 1.609375 0.3125q0.734375 0.3125 1.09375 0.828125q0.375 0.5 0.515625 1.203125q0.09375 0.453125 0.09375 1.59375l0 5.953125l-1.640625 0l0 -5.890625q0 -1.0 -0.203125 -1.484375q-0.1875 -0.5 -0.671875 -0.796875q-0.484375 -0.296875 -1.140625 -0.296875q-1.046875 0 -1.8125 0.671875q-0.75 0.65625 -0.75 2.515625l0 5.28125l-1.640625 0z"
              fill-rule="nonzero"></path>
        <path fill="#000000"
              d="m366.418 242.48041q-1.421875 8.09375 -9.28125 11.578125l-1.34375 -1.40625q7.28125 -2.96875 8.765625 -10.25l-5.9375 0q-1.703125 2.828125 -3.5625 4.53125l-1.484375 -0.96875q3.859375 -3.484375 4.96875 -8.15625l1.703125 0.59375q0.453125 0.21875 -0.140625 0.4375q-0.296875 0.96875 -0.8125 1.9375l5.34375 0l0.65625 -0.375l1.34375 1.34375q0.515625 0.515625 -0.21875 0.734375zm5.5546875 10.25q7.203125 -1.859375 8.09375 -7.796875l-11.28125 0l0 -1.640625l11.359375 0l0.671875 -0.21875l1.328125 0.8125q0.453125 0.375 -0.140625 0.671875q-1.1875 7.421875 -8.6875 9.65625l-1.34375 -1.484375zm8.390625 -12.03125l-10.234375 0l0 -1.625l10.234375 0l0 1.625zm12.847656 5.203125q3.1875 2.4375 6.296875 5.640625l-1.484375 1.265625q-3.109375 -3.28125 -6.0 -5.5q-2.90625 3.109375 -6.609375 5.5625l-1.40625 -1.265625q7.859375 -5.109375 10.09375 -10.234375l-8.09375 0.515625l-0.21875 -1.78125l8.609375 -0.375l0.890625 -0.21875l1.1875 1.1875q0.515625 0.515625 -0.296875 0.671875q-1.421875 2.453125 -2.96875 4.53125z"
              fill-rule="nonzero"></path>
        <path fill="#000000" fill-opacity="0.0" d="m287.0 300.00787l0 -15.275604l89.51181 0l0 -15.275574"
              fill-rule="evenodd"></path>
        <path stroke="#000000" stroke-width="1.0" stroke-linejoin="round" stroke-linecap="butt"
              d="m287.0 300.00787l0 -15.275604l89.51181 0l0 -15.275574" fill-rule="evenodd"></path>
        <path fill="#000000" fill-opacity="0.0" d="m376.50394 269.4567l0 15.274963l90.48819 0l0 15.276215"
              fill-rule="evenodd"></path>
        <path stroke="#000000" stroke-width="1.0" stroke-linejoin="round" stroke-linecap="butt"
              d="m376.50394 269.4567l0 15.274963l90.48819 0l0 15.276215" fill-rule="evenodd"></path>
        <path fill="#000000" fill-opacity="0.0" d="m467.0 382.4567l0 -13.007874" fill-rule="evenodd"></path>
        <path stroke="#000000" stroke-width="1.0" stroke-linejoin="round" stroke-linecap="butt"
              d="m467.0 382.4567l0 -13.007874" fill-rule="evenodd"></path>
        <path fill="#cfe2f3"
              d="m5.4803147 211.58292l0 0c0 -6.3927155 5.18232 -11.575043 11.575035 -11.575043l146.89719 0c3.0698853 0 6.014038 1.2195129 8.184784 3.3902435c2.1707306 2.1707458 3.3902435 5.1148987 3.3902435 8.184799l0 46.298737c0 6.3927307 -5.182312 11.575043 -11.575027 11.575043l-146.89719 0l0 0c-6.3927145 0 -11.575035 -5.182312 -11.575035 -11.575043z"
              fill-rule="evenodd"></path>
        <path fill="#000000"
              d="m71.244026 230.65228l0 -13.359375l9.65625 0l0 1.578125l-7.875 0l0 4.09375l7.375 0l0 1.5625l-7.375 0l0 4.546875l8.1875 0l0 1.578125l-9.96875 0zm12.193573 0l0 -9.671875l1.46875 0l0 1.46875q0.5625 -1.03125 1.03125 -1.359375q0.484375 -0.328125 1.0625 -0.328125q0.828125 0 1.6875 0.53125l-0.5625 1.515625q-0.609375 -0.359375 -1.203125 -0.359375q-0.546875 0 -0.96875 0.328125q-0.421875 0.328125 -0.609375 0.890625q-0.28125 0.875 -0.28125 1.921875l0 5.0625l-1.625 0zm6.212677 0l0 -9.671875l1.46875 0l0 1.46875q0.5625 -1.03125 1.03125 -1.359375q0.484375 -0.328125 1.0625 -0.328125q0.828125 0 1.6875 0.53125l-0.5625 1.515625q-0.609375 -0.359375 -1.203125 -0.359375q-0.546875 0 -0.96875 0.328125q-0.421875 0.328125 -0.609375 0.890625q-0.28125 0.875 -0.28125 1.921875l0 5.0625l-1.625 0zm5.618927 -4.84375q0 -2.6875 1.484375 -3.96875q1.25 -1.078125 3.046875 -1.078125q2.0 0 3.265625 1.3125q1.265625 1.296875 1.265625 3.609375q0 1.859375 -0.5625 2.9375q-0.5625 1.0625 -1.640625 1.65625q-1.0625 0.59375 -2.328125 0.59375q-2.03125 0 -3.28125 -1.296875q-1.25 -1.3125 -1.25 -3.765625zm1.6875 0q0 1.859375 0.796875 2.796875q0.8125 0.921875 2.046875 0.921875q1.21875 0 2.03125 -0.921875q0.8125 -0.9375 0.8125 -2.84375q0 -1.796875 -0.8125 -2.71875q-0.8125 -0.921875 -2.03125 -0.921875q-1.234375 0 -2.046875 0.921875q-0.796875 0.90625 -0.796875 2.765625zm9.281967 4.84375l0 -9.671875l1.46875 0l0 1.46875q0.5625 -1.03125 1.03125 -1.359375q0.484375 -0.328125 1.0625 -0.328125q0.828125 0 1.6875 0.53125l-0.5625 1.515625q-0.609375 -0.359375 -1.203125 -0.359375q-0.546875 0 -0.96875 0.328125q-0.421875 0.328125 -0.609375 0.890625q-0.28125 0.875 -0.28125 1.921875l0 5.0625l-1.625 0z"
              fill-rule="nonzero"></path>
        <path fill="#000000"
              d="m80.418 242.48041q-1.421875 8.09375 -9.28125 11.578125l-1.34375 -1.40625q7.28125 -2.96875 8.765625 -10.25l-5.9375 0q-1.703125 2.828125 -3.5625 4.53125l-1.484375 -0.96875q3.859375 -3.484375 4.96875 -8.15625l1.703125 0.59375q0.453125 0.21875 -0.140625 0.4375q-0.296875 0.96875 -0.8125 1.9375l5.34375 0l0.65625 -0.375l1.34375 1.34375q0.515625 0.515625 -0.21875 0.734375zm5.5546875 10.25q7.203125 -1.859375 8.09375 -7.796875l-11.28125 0l0 -1.640625l11.359375 0l0.671875 -0.21875l1.328125 0.8125q0.453125 0.375 -0.140625 0.671875q-1.1875 7.421875 -8.6875 9.65625l-1.34375 -1.484375zm8.390625 -12.03125l-10.234375 0l0 -1.625l10.234375 0l0 1.625zm12.847656 5.203125q3.1875 2.4375 6.296875 5.640625l-1.484375 1.265625q-3.109375 -3.28125 -6.0 -5.5q-2.90625 3.109375 -6.609375 5.5625l-1.40625 -1.265625q7.859375 -5.109375 10.09375 -10.234375l-8.09375 0.515625l-0.21875 -1.78125l8.609375 -0.375l0.890625 -0.21875l1.1875 1.1875q0.515625 0.515625 -0.296875 0.671875q-1.421875 2.453125 -2.96875 4.53125z"
              fill-rule="nonzero"></path>
        <path fill="#cfe2f3"
              d="m5.4803147 311.58292l0 0c0 -6.3927307 5.18232 -11.575043 11.575035 -11.575043l146.89719 0c3.0698853 0 6.014038 1.2195129 8.184784 3.3902588c2.1707306 2.1707458 3.3902435 5.1148987 3.3902435 8.184784l0 46.298737c0 6.3927307 -5.182312 11.575043 -11.575027 11.575043l-146.89719 0l0 0c-6.3927145 0 -11.575035 -5.182312 -11.575035 -11.575043z"
              fill-rule="evenodd"></path>
        <path fill="#000000"
              d="m38.62112 334.2304q2.671875 -2.671875 3.640625 -7.9375l1.5625 0.4375q0.296875 0.296875 -0.21875 0.375q-0.890625 3.109375 -1.1875 3.9375l0.296875 0.0625q0.21875 0.234375 -0.15625 0.453125l0 11.578125l-1.484375 0l0 -9.421875q-0.8125 1.1875 -1.625 1.921875l-0.828125 -1.40625zm4.234375 3.109375q2.296875 -2.375 2.75 -8.234375l-1.5625 0l0 -1.40625l6.609375 0l0 1.40625l-3.640625 0l-0.296875 2.375l3.125 0l0 1.78125q0 6.390625 -5.125 9.796875l-0.890625 -1.328125q2.59375 -1.640625 3.78125 -4.53125q-1.109375 -0.96875 -2.0 -1.34375q-0.671875 1.421875 -1.703125 2.75l-1.046875 -1.265625zm3.1875 -2.8125q1.125 0.375 2.015625 1.109375q0.359375 -1.328125 0.359375 -2.75l-1.921875 0q-0.078125 0.671875 -0.453125 1.640625zm7.5 6.96875q0.296875 0 0.296875 -0.296875l0 -14.171875l1.40625 0q0.59375 0.078125 0.078125 0.453125l0 14.390625q0 1.046875 -0.96875 1.046875l-2.0 0l-0.140625 -1.421875l1.328125 0zm-1.109375 -2.59375l-1.484375 0l0 -9.875l1.40625 0q0.59375 0.078125 0.078125 0.453125l0 9.421875zm6.53125 2.453125q2.453125 -1.5625 4.296875 -4.90625q-1.484375 -1.328125 -2.4375 -1.921875q-0.53125 1.265625 -1.421875 2.296875l-1.328125 -0.96875q2.453125 -3.03125 3.1875 -8.15625l1.5625 0.4375q0.375 0.296875 -0.15625 0.53125l-0.296875 1.40625l2.8281288 0l0.296875 -0.296875l1.03125 0.890625q0.234375 0.21875 -0.140625 0.4375q-1.109375 7.875 -6.453129 11.59375l-0.96875 -1.34375zm14.921879 -3.125q-2.15625 -1.484375 -3.203125 -2.4375l0 7.203125l-1.484375 0l0 -8.6875q-1.40625 -1.78125 -2.515625 -3.71875l1.1875 -0.890625q0.671875 1.1875 1.328125 2.078125l0 -5.125l1.421875 0q0.59375 0.078125 0.0625 0.453125l0 6.375q0.53125 1.046875 4.3125 3.265625l-1.109375 1.484375zm-10.031254 -3.265625q0.6718788 -1.703125 0.9687538 -3.484375l-2.8125038 0l-0.59375 1.640625q0.953125 0.59375 2.4375 1.84375zm22.500004 -3.78125q-1.265625 7.421875 -3.046875 9.203125q-0.96875 0.96875 -2.0 0.96875q-1.1875 0 -1.859375 -0.671875q-1.78125 -1.78125 -1.78125 -4.453125q0 -3.265625 2.296875 -5.5625q2.53125 -2.53125 6.15625 -2.53125q3.265625 0 5.125 1.859375q2.078125 2.078125 2.078125 4.90625q0 3.03125 -1.921875 4.96875q-1.265625 1.265625 -3.859375 2.453125l-1.5625 -1.5625q2.59375 -0.8125 4.078125 -2.296875q1.40625 -1.421875 1.40625 -3.421875q0 -2.375 -1.546875 -3.9375q-1.5625 -1.546875 -4.90625 -1.40625l1.34375 0.671875q0.890625 0.375 0 0.8125zm-1.71875 -1.40625q-1.921875 0.4375 -3.328125 1.859375q-1.9375 1.921875 -1.9375 4.75q0 1.703125 1.109375 2.8125q0.234375 0.21875 0.671875 0.21875q0.453125 0 0.96875 -0.515625q1.703125 -1.703125 2.515625 -9.125zm24.28125 1.703125q-1.421875 8.09375 -9.28125 11.578125l-1.34375 -1.40625q7.28125 -2.96875 8.765625 -10.25l-5.9375 0q-1.703125 2.828125 -3.5625 4.53125l-1.484375 -0.96875q3.859375 -3.484375 4.96875 -8.15625l1.703125 0.59375q0.453125 0.21875 -0.140625 0.4375q-0.296875 0.96875 -0.8125 1.9375l5.34375 0l0.65625 -0.375l1.34375 1.34375q0.515625 0.515625 -0.21875 0.734375zm5.5546875 10.25q7.203125 -1.859375 8.09375 -7.796875l-11.28125 0l0 -1.640625l11.359375 0l0.671875 -0.21875l1.328125 0.8125q0.453125 0.375 -0.140625 0.671875q-1.1875 7.421875 -8.6875 9.65625l-1.34375 -1.484375zm8.390625 -12.03125l-10.234375 0l0 -1.625l10.234375 0l0 1.625zm12.847656 5.203125q3.1875 2.4375 6.296875 5.640625l-1.484375 1.265625q-3.109375 -3.28125 -6.0 -5.5q-2.90625 3.109375 -6.609375 5.5625l-1.40625 -1.265625q7.859375 -5.109375 10.09375 -10.234375l-8.09375 0.515625l-0.21875 -1.78125l8.609375 -0.375l0.890625 -0.21875l1.1875 1.1875q0.515625 0.515625 -0.296875 0.671875q-1.421875 2.453125 -2.96875 4.53125z"
              fill-rule="nonzero"></path>
        <path fill="#000000" fill-opacity="0.0" d="m90.50394 269.4567l0 30.551178" fill-rule="evenodd"></path>
        <path stroke="#000000" stroke-width="1.0" stroke-linejoin="round" stroke-linecap="butt"
              d="m90.50394 269.4567l0 30.551178" fill-rule="evenodd"></path>
        <path fill="#000000" fill-opacity="0.0" d="m90.50394 200.00787l0 -21.779526l138.48819 0l0 -21.779526"
              fill-rule="evenodd"></path>
        <path stroke="#000000" stroke-width="1.0" stroke-linejoin="round" stroke-linecap="butt"
              d="m90.50394 200.00787l0 -21.779526l138.48819 0l0 -21.779526" fill-rule="evenodd"></path>
        <path fill="#000000" fill-opacity="0.0" d="m228.99869 156.44882l0 21.779526l147.49606 0l0 21.779526"
              fill-rule="evenodd"></path>
        <path stroke="#000000" stroke-width="1.0" stroke-linejoin="round" stroke-linecap="butt"
              d="m228.99869 156.44882l0 21.779526l147.49606 0l0 21.779526" fill-rule="evenodd"></path>
        <path fill="#cfe2f3"
              d="m143.97507 98.575035l0 0c0 -6.3927155 5.182312 -11.575035 11.575027 -11.575035l146.89717 0c3.0698853 0 6.0140686 1.2195053 8.184784 3.3902512c2.1707458 2.1707382 3.3902588 5.114891 3.3902588 8.184784l0 46.298744c0 6.3927155 -5.182312 11.575043 -11.575043 11.575043l-146.89717 0l0 0c-6.3927155 0 -11.575027 -5.1823273 -11.575027 -11.575043z"
              fill-rule="evenodd"></path>
        <path fill="#000000"
              d="m190.28993 117.64441l0 -11.78125l-4.40625 0l0 -1.578125l10.578125 0l0 1.578125l-4.40625 0l0 11.78125l-1.765625 0zm7.786606 0l0 -13.359375l1.640625 0l0 4.796875q1.140625 -1.328125 2.890625 -1.328125q1.078125 0 1.859375 0.421875q0.796875 0.421875 1.140625 1.171875q0.34375 0.75 0.34375 2.171875l0 6.125l-1.640625 0l0 -6.125q0 -1.234375 -0.53125 -1.796875q-0.53125 -0.5625 -1.515625 -0.5625q-0.71875 0 -1.359375 0.390625q-0.640625 0.375 -0.921875 1.015625q-0.265625 0.640625 -0.265625 1.78125l0 5.296875l-1.640625 0zm10.360092 0l0 -9.671875l1.46875 0l0 1.46875q0.5625 -1.03125 1.03125 -1.359375q0.484375 -0.328125 1.0625 -0.328125q0.828125 0 1.6875 0.53125l-0.5625 1.515625q-0.609375 -0.359375 -1.203125 -0.359375q-0.546875 0 -0.96875 0.328125q-0.421875 0.328125 -0.609375 0.890625q-0.28125 0.875 -0.28125 1.921875l0 5.0625l-1.625 0zm5.618927 -4.84375q0 -2.6875 1.484375 -3.96875q1.25 -1.078125 3.046875 -1.078125q2.0 0 3.265625 1.3125q1.265625 1.296875 1.265625 3.609375q0 1.859375 -0.5625 2.9375q-0.5625 1.0625 -1.640625 1.65625q-1.0625 0.59375 -2.328125 0.59375q-2.03125 0 -3.28125 -1.296875q-1.25 -1.3125 -1.25 -3.765625zm1.6875 0q0 1.859375 0.796875 2.796875q0.8125 0.921875 2.046875 0.921875q1.21875 0 2.03125 -0.921875q0.8125 -0.9375 0.8125 -2.84375q0 -1.796875 -0.8125 -2.71875q-0.8125 -0.921875 -2.03125 -0.921875q-1.234375 0 -2.046875 0.921875q-0.796875 0.90625 -0.796875 2.765625zm11.078842 4.84375l-2.96875 -9.671875l1.703125 0l1.53125 5.578125l0.578125 2.078125q0.046875 -0.15625 0.5 -2.0l1.546875 -5.65625l1.6875 0l1.4375 5.609375l0.484375 1.84375l0.5625 -1.859375l1.65625 -5.59375l1.59375 0l-3.03125 9.671875l-1.703125 0l-1.53125 -5.796875l-0.375 -1.640625l-1.953125 7.4375l-1.71875 0zm18.004196 -1.1875q-0.921875 0.765625 -1.765625 1.09375q-0.828125 0.3125 -1.796875 0.3125q-1.59375 0 -2.453125 -0.78125q-0.859375 -0.78125 -0.859375 -1.984375q0 -0.71875 0.328125 -1.296875q0.328125 -0.59375 0.84375 -0.9375q0.53125 -0.359375 1.1875 -0.546875q0.46875 -0.125 1.453125 -0.25q1.984375 -0.234375 2.921875 -0.5625q0.015625 -0.34375 0.015625 -0.421875q0 -1.0 -0.46875 -1.421875q-0.625 -0.546875 -1.875 -0.546875q-1.15625 0 -1.703125 0.40625q-0.546875 0.40625 -0.8125 1.421875l-1.609375 -0.21875q0.21875 -1.015625 0.71875 -1.640625q0.5 -0.640625 1.453125 -0.984375q0.953125 -0.34375 2.1875 -0.34375q1.25 0 2.015625 0.296875q0.78125 0.28125 1.140625 0.734375q0.375 0.4375 0.515625 1.109375q0.078125 0.421875 0.078125 1.515625l0 2.1875q0 2.28125 0.109375 2.890625q0.109375 0.59375 0.40625 1.15625l-1.703125 0q-0.265625 -0.515625 -0.328125 -1.1875zm-0.140625 -3.671875q-0.890625 0.375 -2.671875 0.625q-1.015625 0.140625 -1.4375 0.328125q-0.421875 0.1875 -0.65625 0.53125q-0.21875 0.34375 -0.21875 0.78125q0 0.65625 0.5 1.09375q0.5 0.4375 1.453125 0.4375q0.9375 0 1.671875 -0.40625q0.75 -0.421875 1.09375 -1.140625q0.265625 -0.5625 0.265625 -1.640625l0 -0.609375zm5.703842 4.859375l-1.515625 0l0 -13.359375l1.640625 0l0 4.765625q1.046875 -1.296875 2.65625 -1.296875q0.890625 0 1.6875 0.359375q0.796875 0.359375 1.3125 1.015625q0.515625 0.640625 0.796875 1.5625q0.296875 0.921875 0.296875 1.96875q0 2.484375 -1.234375 3.84375q-1.21875 1.359375 -2.953125 1.359375q-1.703125 0 -2.6875 -1.4375l0 1.21875zm-0.015625 -4.90625q0 1.734375 0.484375 2.515625q0.765625 1.265625 2.09375 1.265625q1.078125 0 1.859375 -0.9375q0.78125 -0.9375 0.78125 -2.78125q0 -1.890625 -0.75 -2.796875q-0.75 -0.90625 -1.828125 -0.90625q-1.0625 0 -1.859375 0.9375q-0.78125 0.9375 -0.78125 2.703125zm8.844452 4.90625l0 -13.359375l1.640625 0l0 13.359375l-1.640625 0zm10.816711 -3.109375l1.6875 0.203125q-0.40625 1.484375 -1.484375 2.3125q-1.078125 0.8125 -2.765625 0.8125q-2.125 0 -3.375 -1.296875q-1.234375 -1.3125 -1.234375 -3.671875q0 -2.453125 1.25 -3.796875q1.265625 -1.34375 3.265625 -1.34375q1.9375 0 3.15625 1.328125q1.234375 1.3125 1.234375 3.703125q0 0.15625 0 0.4375l-7.21875 0q0.09375 1.59375 0.90625 2.453125q0.8125 0.84375 2.015625 0.84375q0.90625 0 1.546875 -0.46875q0.640625 -0.484375 1.015625 -1.515625zm-5.390625 -2.65625l5.40625 0q-0.109375 -1.21875 -0.625 -1.828125q-0.78125 -0.953125 -2.03125 -0.953125q-1.125 0 -1.90625 0.765625q-0.765625 0.75 -0.84375 2.015625z"
              fill-rule="nonzero"></path>
        <path fill="#000000"
              d="m218.91275 129.47253q-1.421875 8.09375 -9.28125 11.578125l-1.34375 -1.40625q7.28125 -2.96875 8.765625 -10.25l-5.9375 0q-1.703125 2.828125 -3.5625 4.53125l-1.484375 -0.96875q3.859375 -3.484375 4.96875 -8.15625l1.703125 0.59375q0.453125 0.21875 -0.140625 0.4375q-0.296875 0.96875 -0.8125 1.9375l5.34375 0l0.65625 -0.375l1.34375 1.34375q0.515625 0.515625 -0.21875 0.734375zm5.5546875 10.25q7.203125 -1.859375 8.09375 -7.796875l-11.28125 0l0 -1.640625l11.359375 0l0.671875 -0.21875l1.328125 0.8125q0.453125 0.375 -0.140625 0.671875q-1.1875 7.421875 -8.6875 9.65625l-1.34375 -1.484375zm8.390625 -12.03125l-10.234375 0l0 -1.625l10.234375 0l0 1.625zm12.847656 5.203125q3.1875 2.4375 6.296875 5.640625l-1.484375 1.265625q-3.109375 -3.28125 -6.0 -5.5q-2.90625 3.109375 -6.609375 5.5625l-1.40625 -1.265625q7.859375 -5.109375 10.09375 -10.234375l-8.09375 0.515625l-0.21875 -1.78125l8.609375 -0.375l0.890625 -0.21875l1.1875 1.1875q0.515625 0.515625 -0.296875 0.671875q-1.421875 2.453125 -2.96875 4.53125z"
              fill-rule="nonzero"></path>
        <path fill="#cfe2f3"
              d="m143.97507 16.575035l0 0c0 -6.3927155 5.182312 -11.575035 11.575027 -11.575035l146.89717 0c3.0698853 0 6.0140686 1.2195091 8.184784 3.3902493c2.1707458 2.1707401 3.3902588 5.114895 3.3902588 8.184786l0 46.298748c0 6.3927193 -5.182312 11.575039 -11.575043 11.575039l-146.89717 0l0 0c-6.3927155 0 -11.575027 -5.1823196 -11.575027 -11.575039z"
              fill-rule="evenodd"></path>
        <path fill="#000000"
              d="m202.94537 29.144407q0 -3.328125 1.78125 -5.203125q1.78125 -1.890625 4.609375 -1.890625q1.84375 0 3.328125 0.890625q1.484375 0.875 2.265625 2.46875q0.78125 1.578125 0.78125 3.578125q0 2.03125 -0.828125 3.640627q-0.8125 1.59375 -2.3125 2.421875q-1.5 0.828125 -3.25 0.828125q-1.875 0 -3.359375 -0.90625q-1.484375 -0.921875 -2.25 -2.5q-0.765625 -1.5781269 -0.765625 -3.328127zm1.8125 0.015625q0 2.421875 1.296875 3.812502q1.296875 1.390625 3.265625 1.390625q2.0 0 3.28125 -1.40625q1.28125 -1.4062519 1.28125 -3.984377q0 -1.625 -0.546875 -2.84375q-0.546875 -1.21875 -1.609375 -1.875q-1.0625 -0.671875 -2.375 -0.671875q-1.890625 0 -3.25 1.296875q-1.34375 1.28125 -1.34375 4.28125zm14.527054 6.484377l-1.515625 0l0 -13.359377l1.640625 0l0 4.765625q1.046875 -1.296875 2.65625 -1.296875q0.890625 0 1.6875 0.359375q0.796875 0.359375 1.3125 1.015625q0.515625 0.640625 0.796875 1.5625q0.296875 0.921875 0.296875 1.96875q0 2.484377 -1.234375 3.843752q-1.21875 1.359375 -2.953125 1.359375q-1.703125 0 -2.6875 -1.4375l0 1.21875zm-0.015625 -4.906252q0 1.7343769 0.484375 2.515627q0.765625 1.265625 2.09375 1.265625q1.078125 0 1.859375 -0.9375q0.78125 -0.9375 0.78125 -2.781252q0 -1.890625 -0.75 -2.796875q-0.75 -0.90625 -1.828125 -0.90625q-1.0625 0 -1.859375 0.9375q-0.78125 0.9375 -0.78125 2.703125zm8.875717 -6.546875l0 -1.90625l1.640625 0l0 1.90625l-1.640625 0zm-2.078125 15.203127l0.3125 -1.390625q0.5 0.125 0.78125 0.125q0.5 0 0.734375 -0.328125q0.25 -0.328125 0.25 -1.671875l0 -10.156252l1.640625 0l0 10.203127q0 1.78125 -0.46875 2.484375q-0.59375 0.90625 -1.96875 0.90625q-0.65625 0 -1.28125 -0.171875zm12.863571 -6.859375l1.6875 0.203125q-0.40625 1.484375 -1.484375 2.3125q-1.078125 0.8125 -2.765625 0.8125q-2.125 0 -3.375 -1.296875q-1.234375 -1.3125 -1.234375 -3.671877q0 -2.453125 1.25 -3.796875q1.265625 -1.34375 3.265625 -1.34375q1.9375 0 3.15625 1.328125q1.234375 1.3125 1.234375 3.703125q0 0.15625 0 0.4375l-7.21875 0q0.09375 1.5937519 0.90625 2.453127q0.8125 0.84375 2.015625 0.84375q0.90625 0 1.546875 -0.46875q0.640625 -0.484375 1.015625 -1.515625zm-5.390625 -2.656252l5.40625 0q-0.109375 -1.21875 -0.625 -1.828125q-0.78125 -0.953125 -2.03125 -0.953125q-1.125 0 -1.90625 0.765625q-0.765625 0.75 -0.84375 2.015625zm15.453842 2.218752l1.609375 0.21875q-0.265625 1.65625 -1.359375 2.609375q-1.078125 0.9375 -2.671875 0.9375q-1.984375 0 -3.1875 -1.296875q-1.203125 -1.296875 -1.203125 -3.718752q0 -1.578125 0.515625 -2.75q0.515625 -1.171875 1.578125 -1.75q1.0625 -0.59375 2.3125 -0.59375q1.578125 0 2.578125 0.796875q1.0 0.796875 1.28125 2.265625l-1.59375 0.234375q-0.234375 -0.96875 -0.8125 -1.453125q-0.578125 -0.5 -1.390625 -0.5q-1.234375 0 -2.015625 0.890625q-0.78125 0.890625 -0.78125 2.8125q0 1.9531269 0.75 2.843752q0.75 0.875 1.953125 0.875q0.96875 0 1.609375 -0.59375q0.65625 -0.59375 0.828125 -1.828125zm6.59375 2.078125l0.234375 1.453125q-0.6875 0.140625 -1.234375 0.140625q-0.890625 0 -1.390625 -0.28125q-0.484375 -0.28125 -0.6875 -0.734375q-0.203125 -0.46875 -0.203125 -1.9375l0 -5.578127l-1.203125 0l0 -1.265625l1.203125 0l0 -2.390625l1.625 -0.984375l0 3.375l1.65625 0l0 1.265625l-1.65625 0l0 5.671877q0 0.6875 0.078125 0.890625q0.09375 0.203125 0.28125 0.328125q0.203125 0.109375 0.578125 0.109375q0.265625 0 0.71875 -0.0625z"
              fill-rule="nonzero"></path>
        <path fill="#000000"
              d="m218.91275 47.472534q-1.421875 8.09375 -9.28125 11.578125l-1.34375 -1.40625q7.28125 -2.96875 8.765625 -10.25l-5.9375 0q-1.703125 2.828125 -3.5625 4.53125l-1.484375 -0.96875q3.859375 -3.484375 4.96875 -8.15625l1.703125 0.59375q0.453125 0.21875 -0.140625 0.4375q-0.296875 0.96875 -0.8125 1.9375l5.34375 0l0.65625 -0.375l1.34375 1.34375q0.515625 0.515625 -0.21875 0.734375zm5.5546875 10.25q7.203125 -1.859375 8.09375 -7.796875l-11.28125 0l0 -1.640625l11.359375 0l0.671875 -0.21875l1.328125 0.8125q0.453125 0.375 -0.140625 0.671875q-1.1875 7.421875 -8.6875 9.65625l-1.34375 -1.484375zm8.390625 -12.03125l-10.234375 0l0 -1.625l10.234375 0l0 1.625zm12.847656 5.203125q3.1875 2.4375 6.296875 5.640625l-1.484375 1.265625q-3.109375 -3.28125 -6.0 -5.5q-2.90625 3.109375 -6.609375 5.5625l-1.40625 -1.265625q7.859375 -5.109375 10.09375 -10.234375l-8.09375 0.515625l-0.21875 -1.78125l8.609375 -0.375l0.890625 -0.21875l1.1875 1.1875q0.515625 0.515625 -0.296875 0.671875q-1.421875 2.453125 -2.96875 4.53125z"
              fill-rule="nonzero"></path>
        <path fill="#000000" fill-opacity="0.0" d="m228.99869 74.44882l0 12.566925" fill-rule="evenodd"></path>
        <path stroke="#000000" stroke-width="1.0" stroke-linejoin="round" stroke-linecap="butt"
              d="m228.99869 74.44882l0 12.566925" fill-rule="evenodd"></path>
    </g>
</svg>